 <svg version="1.0" xmlns="http://www.w3.org/2000/svg" width="700.000000pt" height="155.000000pt" viewBox="0 0 700.000000 155.000000" preserveAspectRatio="xMidYMid meet">
<metadata>
Created by potrace 1.12, written by Peter Selinger 2001-2015
</metadata>
<g fill="#000000" stroke="none">
<path d="M1796 1503 c-3 -3 -6 -89 -6 -189 0 -100 -4 -194 -10 -208 -7 -20 -4
-32 14 -59 l24 -34 -23 -89 c-13 -49 -31 -124 -40 -167 -14 -66 -20 -80 -41
-87 -22 -9 -24 -15 -24 -74 l0 -65 -34 -7 c-19 -3 -39 -3 -45 1 -20 12 -11 25
17 25 35 0 52 16 52 50 0 40 -30 63 -64 50 -15 -5 -67 -10 -116 -10 -49 0 -92
-4 -95 -10 -4 -6 -58 -10 -131 -10 -76 0 -124 -4 -124 -10 0 -6 46 -10 118
-10 65 0 121 -2 124 -5 3 -3 2 -22 -1 -43 l-6 -37 -170 -3 c-94 -1 -381 -3
-640 -5 l-470 -2 -3 -71 -3 -72 403 -6 c1094 -18 1736 -27 2518 -36 470 -6
1145 -14 1500 -20 1764 -27 2333 -32 2342 -18 5 7 7 56 4 109 -6 106 4 157 34
184 11 10 20 22 20 26 0 11 -68 4 -105 -11 -37 -14 -182 -37 -249 -39 -27 0
-56 5 -64 11 -11 10 -17 9 -27 -5 -13 -19 -95 -25 -95 -7 0 16 -33 12 -75 -10
-38 -20 -56 -21 -293 -19 -139 1 -255 6 -258 11 -3 5 -15 8 -27 6 -14 -2 -22
2 -22 12 0 12 22 16 115 21 130 7 120 6 120 20 0 7 -39 10 -116 8 -96 -2 -119
0 -128 13 -9 13 -39 17 -151 19 l-140 4 -3 -27 c-6 -47 13 -68 53 -61 30 5 34
3 29 -11 -5 -13 -16 -16 -48 -14 l-41 3 0 75 0 75 118 3 c156 4 154 22 -3 22
-109 0 -120 2 -130 20 -9 17 -21 20 -88 20 -42 0 -92 4 -110 9 -47 14 -82 -3
-82 -41 0 -15 0 -31 0 -35 -1 -5 16 -10 37 -13 36 -5 38 -7 41 -44 2 -22 1
-50 -3 -63 l-6 -25 -177 6 c-97 3 -187 6 -199 6 -22 0 -23 4 -23 81 0 66 -4
86 -21 111 -12 16 -18 32 -14 36 4 4 10 1 12 -6 4 -10 8 -10 19 -1 7 6 21 9
29 5 17 -6 21 1 28 56 l6 37 -55 7 c-45 5 -57 11 -64 29 -7 18 -19 23 -69 29
l-61 7 0 34 c0 32 -2 35 -31 35 -22 0 -32 5 -36 20 -6 23 -43 27 -43 5 0 -8
-4 -15 -10 -15 -21 0 -8 37 20 59 32 23 32 41 -1 41 -25 0 -25 27 1 35 26 8
26 21 0 28 -16 4 -19 12 -17 43 l2 38 -53 9 c-75 12 -86 6 -78 -44 6 -35 4
-41 -14 -46 -26 -7 -26 -19 0 -26 11 -3 20 -10 20 -15 0 -12 -42 -24 -52 -14
-4 4 -9 43 -12 87 -9 147 -21 215 -35 199 -5 -5 -3 -63 5 -134 41 -384 42
-394 31 -411 -8 -13 -8 -24 0 -42 8 -16 9 -36 3 -54 -4 -15 -9 -20 -9 -11 -1
14 -6 15 -30 8 -21 -6 -35 -4 -50 7 -12 8 -21 12 -21 8 0 -3 -11 2 -26 11 -31
21 -16 46 16 27 16 -10 20 -9 25 6 7 23 -7 62 -29 80 -14 12 -19 11 -35 -3
-23 -20 -31 -58 -19 -80 11 -20 1 -20 -43 -2 -55 23 -76 54 -96 141 -14 59
-23 79 -34 76 -8 -3 -27 -5 -44 -6 -51 -3 -56 -5 -50 -15 3 -6 -1 -7 -10 -4
-8 4 -21 1 -29 -5 -7 -6 -33 -9 -59 -7 -30 3 -50 0 -54 -7 -5 -7 -17 -17 -28
-23 -26 -15 -29 -93 -9 -221 8 -51 14 -97 14 -103 0 -6 -38 -10 -96 -10 l-96
0 4 68 c4 47 1 76 -10 97 -27 54 -45 57 -72 13 -16 -26 -19 -43 -14 -75 9 -63
-1 -93 -31 -93 -17 0 -25 6 -26 18 -1 9 -2 31 -3 47 -1 17 -7 41 -13 55 -5 14
-13 57 -17 95 -7 78 -24 100 -66 90 -14 -4 -28 -10 -32 -13 -4 -4 -9 -44 -10
-90 -2 -58 -7 -82 -16 -82 -7 0 -17 -10 -21 -22 -6 -15 -7 -3 -4 35 l6 58 -59
-3 c-32 -2 -58 -7 -58 -13 1 -5 5 -30 8 -55 6 -36 5 -43 -5 -32 -15 14 -42 16
-67 3 -9 -5 -25 -12 -34 -15 -14 -4 -18 -16 -18 -53 l0 -48 -74 3 c-54 3 -81
0 -105 -12 -34 -18 -40 -33 -16 -42 37 -14 9 -24 -69 -24 l-84 0 -4 62 c-2 35
1 66 5 69 5 4 4 10 -3 14 -7 4 -15 3 -19 -2 -9 -14 -61 -8 -72 8 -10 16 -10
15 -12 -76 l-2 -70 -127 -3 -128 -3 0 38 c0 85 8 80 -181 88 -155 7 -169 9
-169 26 0 22 50 113 180 324 37 61 88 144 113 186 26 42 54 82 62 89 17 14 20
40 5 40 -8 0 -90 -114 -90 -126 0 -3 -33 -58 -73 -122 -41 -64 -98 -159 -127
-209 -30 -51 -58 -93 -63 -93 -10 0 -7 279 3 285 15 10 -6 60 -25 60 -17 0
-18 11 -16 187 2 169 -3 211 -23 191z m2523 -442 c12 -8 12 -11 -1 -25 -18
-17 -28 -11 -28 16 0 20 8 22 29 9z m-2493 -253 c-2 -68 -4 -126 -5 -130 0 -5
-15 -8 -32 -8 -27 0 -31 3 -26 23 3 12 15 70 28 130 12 59 26 107 30 107 4 0
6 -55 5 -122z m2916 -81 c8 -16 8 -19 -5 -14 -8 3 -20 0 -26 -6 -8 -8 -11 -1
-11 27 0 34 2 37 16 26 8 -8 20 -22 26 -33z"></path>
<path d="M2055 1206 c-50 -44 -115 -103 -145 -129 -30 -27 -49 -47 -41 -45 21
6 200 142 201 153 0 5 19 28 42 52 72 73 37 55 -57 -31z"></path>
<path d="M2140 1140 c-6 -11 -8 -20 -6 -20 3 0 10 9 16 20 6 11 8 20 6 20 -3
0 -10 -9 -16 -20z"></path>
<path d="M2110 1090 c-6 -11 -8 -20 -6 -20 3 0 10 9 16 20 6 11 8 20 6 20 -3
0 -10 -9 -16 -20z"></path>
<path d="M5270 801 c0 -19 17 -38 25 -29 7 7 -7 48 -16 48 -5 0 -9 -9 -9 -19z"></path>
<path d="M2222 738 c-16 -16 -15 -53 2 -67 13 -11 193 -7 204 4 3 3 -1 11 -8
20 -7 8 -9 15 -4 15 4 0 3 5 -4 12 -9 9 -15 9 -23 1 -8 -8 -8 -13 0 -17 25
-16 7 -24 -46 -21 -32 1 -68 3 -80 4 -14 1 -23 7 -23 17 0 10 6 14 15 11 8 -4
17 -2 21 4 4 6 11 6 19 -1 20 -16 40 -3 24 16 -14 17 -80 19 -97 2z"></path>
<path d="M2345 720 c-3 -5 1 -10 9 -10 9 0 16 5 16 10 0 6 -4 10 -9 10 -6 0
-13 -4 -16 -10z"></path>
<path d="M2437 724 c-11 -11 3 -24 18 -18 8 4 12 10 9 15 -6 11 -18 12 -27 3z"></path>
<path d="M2490 720 c0 -5 9 -10 21 -10 11 0 17 5 14 10 -3 6 -13 10 -21 10 -8
0 -14 -4 -14 -10z"></path>
<path d="M2550 720 c0 -5 7 -10 16 -10 8 0 12 5 9 10 -3 6 -10 10 -16 10 -5 0
-9 -4 -9 -10z"></path>
<path d="M2602 718 c5 -15 28 -18 29 -3 0 6 -7 12 -17 13 -10 3 -15 -1 -12
-10z"></path>
<path d="M2652 721 c2 -7 7 -12 11 -12 12 1 9 15 -3 20 -7 2 -11 -2 -8 -8z"></path>
<path d="M2700 720 c0 -5 7 -10 16 -10 8 0 12 5 9 10 -3 6 -10 10 -16 10 -5 0
-9 -4 -9 -10z"></path>
<path d="M2750 715 c7 -8 16 -12 21 -9 13 8 1 24 -18 24 -13 0 -13 -3 -3 -15z"></path>
<path d="M2790 715 c0 -21 -22 -35 -37 -23 -15 13 -28 5 -18 -12 6 -10 102 -7
113 5 3 2 -6 9 -19 14 -21 8 -17 10 24 10 26 1 47 5 47 9 0 5 -25 8 -55 8 -34
0 -55 -4 -55 -11z"></path>
<path d="M2865 690 c4 -6 11 -8 16 -5 14 9 11 15 -7 15 -8 0 -12 -5 -9 -10z"></path>
<path d="M2587 684 c-13 -13 -7 -24 14 -24 11 0 19 5 17 12 -5 14 -22 21 -31
12z"></path>
<path d="M2640 680 c0 -5 7 -10 15 -10 8 0 15 5 15 10 0 6 -7 10 -15 10 -8 0
-15 -4 -15 -10z"></path>
<path d="M2685 680 c3 -5 13 -10 21 -10 8 0 12 5 9 10 -3 6 -13 10 -21 10 -8
0 -12 -4 -9 -10z"></path>
</g>
</svg>